<svg width="21" height="21" viewBox="0 0 22 22" fill="none" xmlns="http://www.w3.org/2000/svg">
<path d="M16.7918 13.3887C16.3823 12.9624 15.8884 12.7344 15.365 12.7344C14.8458 12.7344 14.3477 12.9581 13.9214 13.3845L12.5875 14.7141C12.4778 14.655 12.368 14.6002 12.2625 14.5453C12.1105 14.4693 11.967 14.3975 11.8446 14.3216C10.5951 13.528 9.45964 12.4938 8.37059 11.1557C7.84295 10.4888 7.48837 9.92736 7.23088 9.35751C7.57702 9.04092 7.89782 8.71167 8.21019 8.39509C8.32838 8.2769 8.44657 8.15448 8.56476 8.03629C9.4512 7.14985 9.4512 6.0017 8.56476 5.11527L7.41239 3.9629C7.28154 3.83204 7.14646 3.69696 7.01983 3.56189C6.76656 3.30018 6.50063 3.03003 6.22625 2.77676C5.8168 2.37153 5.32715 2.15625 4.81217 2.15625C4.29719 2.15625 3.7991 2.37153 3.37698 2.77676C3.37276 2.78098 3.37276 2.78098 3.36854 2.7852L1.93336 4.23305C1.39305 4.77335 1.08491 5.43185 1.01737 6.19588C0.916062 7.42845 1.27908 8.5766 1.55767 9.32796C2.2415 11.1726 3.26301 12.8822 4.78684 14.7141C6.6357 16.9218 8.86024 18.6651 11.4014 19.8935C12.3722 20.3536 13.6681 20.8981 15.116 20.991C15.2046 20.9952 15.2975 20.9994 15.3819 20.9994C16.357 20.9994 17.1759 20.649 17.8175 19.9526C17.8217 19.9441 17.8302 19.9399 17.8344 19.9315C18.0539 19.6655 18.3071 19.4249 18.5731 19.1674C18.7546 18.9944 18.9403 18.8129 19.1218 18.6229C19.5397 18.1881 19.7592 17.6816 19.7592 17.1624C19.7592 16.639 19.5355 16.1367 19.1092 15.7145L16.7918 13.3887ZM18.3029 17.8335C18.2987 17.8335 18.2987 17.8378 18.3029 17.8335C18.1383 18.0108 17.9695 18.1712 17.7879 18.3485C17.5136 18.6102 17.235 18.8846 16.9733 19.1928C16.5469 19.6486 16.0446 19.8639 15.3861 19.8639C15.3228 19.8639 15.2553 19.8639 15.1919 19.8597C13.9383 19.7795 12.7732 19.2898 11.8995 18.8719C9.5103 17.7154 7.41239 16.0733 5.66906 13.9923C4.22965 12.2574 3.26724 10.6534 2.62984 8.93117C2.23728 7.88011 2.09376 7.06121 2.15708 6.28874C2.19929 5.79487 2.38924 5.38542 2.73959 5.03506L4.179 3.59566C4.38584 3.40148 4.60534 3.29596 4.82061 3.29596C5.08654 3.29596 5.30182 3.45636 5.4369 3.59144C5.44112 3.59566 5.44534 3.59988 5.44956 3.6041C5.70705 3.8447 5.95188 4.09375 6.20937 4.35968C6.34022 4.49476 6.4753 4.62984 6.61037 4.76913L7.76275 5.9215C8.21019 6.36894 8.21019 6.78262 7.76275 7.23006C7.64033 7.35247 7.52214 7.47488 7.39973 7.59307C7.04515 7.95609 6.70746 8.29378 6.34022 8.62303C6.33178 8.63147 6.32334 8.63569 6.31912 8.64414C5.9561 9.00715 6.02364 9.36173 6.09962 9.60233C6.10384 9.615 6.10806 9.62766 6.11228 9.64032C6.41198 10.3664 6.8341 11.0502 7.47571 11.8649L7.47993 11.8691C8.64496 13.3043 9.87331 14.4229 11.2283 15.2798C11.4014 15.3895 11.5787 15.4782 11.7475 15.5626C11.8995 15.6386 12.043 15.7103 12.1654 15.7863C12.1823 15.7947 12.1992 15.8074 12.216 15.8158C12.3596 15.8876 12.4946 15.9214 12.6339 15.9214C12.9843 15.9214 13.2038 15.7019 13.2755 15.6301L14.7192 14.1865C14.8627 14.043 15.0906 13.8699 15.3566 13.8699C15.6183 13.8699 15.8336 14.0345 15.9644 14.178C15.9686 14.1823 15.9686 14.1823 15.9729 14.1865L18.2987 16.5123C18.7335 16.9429 18.7335 17.3861 18.3029 17.8335Z" fill="#8C8C8C" stroke="#8C8C8C" stroke-width="0.7"/>
<path d="M11.7933 5.7574C12.8992 5.94313 13.9039 6.46656 14.7059 7.26857C15.5079 8.07059 16.0271 9.07522 16.217 10.1812C16.2635 10.4598 16.5041 10.6539 16.7785 10.6539C16.8122 10.6539 16.8418 10.6497 16.8755 10.6455C17.1879 10.5948 17.3947 10.2993 17.3441 9.98698C17.1161 8.64888 16.483 7.42897 15.5163 6.46233C14.5497 5.49569 13.3298 4.86252 11.9917 4.63458C11.6793 4.58393 11.3881 4.79076 11.3332 5.09891C11.2783 5.40705 11.4809 5.70675 11.7933 5.7574Z" fill="#8C8C8C" stroke="#8C8C8C" stroke-width="0.7"/>
<path d="M20.962 9.82242C20.5863 7.61899 19.5479 5.61395 17.9523 4.01836C16.3567 2.42277 14.3517 1.38437 12.1482 1.00869C11.8401 0.953813 11.5488 1.16487 11.494 1.47301C11.4433 1.78538 11.6501 2.07664 11.9625 2.13151C13.9295 2.46498 15.7235 3.39785 17.1503 4.82037C18.577 6.24712 19.5057 8.0411 19.8391 10.0082C19.8856 10.2867 20.1262 10.4809 20.4005 10.4809C20.4343 10.4809 20.4639 10.4767 20.4976 10.4725C20.8058 10.426 21.0168 10.1306 20.962 9.82242Z" fill="#8C8C8C" stroke="#8C8C8C" stroke-width="0.7"/>
</svg>
